<svg id="Layer_1" data-name="Layer 1" xmlns="http://www.w3.org/2000/svg" viewBox="0 0 17.79 17.27"><defs><style>.cls-1{fill:#f2d388;}.cls-2{fill:#874c62;}</style></defs><title>sun-heart</title><polygon class="cls-1" points="5.58 17.11 5.51 17.11 5.54 17.07 5.58 17.11"/><polygon class="cls-1" points="5.58 17.11 5.51 17.11 5.54 17.07 5.58 17.11"/><path class="cls-2" d="M17.23,9l-3.16,3.62-4.55,5-5-4.45L1,9.88a4.16,4.16,0,0,1,1.66-6.4c2.26-1,5.05.3,6.24,2.94A.69.69,0,0,1,9,6.55,1.07,1.07,0,0,1,9,6.36C10,3.62,12.61,2,15,2.83A4.17,4.17,0,0,1,17.23,9Z" transform="translate(-0.1 -0.37)"/><circle class="cls-1" cx="8.8" cy="4.47" r="2.47"/><rect class="cls-1" x="6.23" y="1.28" width="0.53" height="1.66" rx="0.08" ry="0.08" transform="translate(0.14 4.51) rotate(-41.86)"/><rect class="cls-1" x="5.01" y="3.85" width="0.53" height="1.66" rx="0.08" ry="0.08" transform="translate(0.3 9.41) rotate(-87.86)"/><rect class="cls-1" x="6.01" y="6.51" width="0.53" height="1.66" rx="0.08" ry="0.08" transform="translate(5.22 16.58) rotate(-133.86)"/><rect class="cls-1" x="8.61" y="7.64" width="0.53" height="1.66" rx="0.08" ry="0.08" transform="translate(17.63 16.59) rotate(-179.86)"/><rect class="cls-1" x="11.23" y="6.55" width="0.53" height="1.66" rx="0.08" ry="0.08" transform="translate(24.7 3.9) rotate(134.14)"/><rect class="cls-1" x="12.27" y="3.91" width="0.53" height="1.66" rx="0.08" ry="0.08" transform="translate(16.76 -8.31) rotate(88.14)"/><rect class="cls-1" x="11.1" y="1.32" width="0.53" height="1.66" rx="0.08" ry="0.08" transform="translate(4.28 -7.43) rotate(42.14)"/><rect class="cls-1" x="8.42" y="0.38" width="0.53" height="1.66" rx="0.08" ry="0.08" transform="translate(-0.17 0.22) rotate(-3.86)"/></svg>