<svg id="Layer_1" data-name="Layer 1" xmlns="http://www.w3.org/2000/svg" viewBox="0 0 23.57 23.57"><defs><style>.cls-1{fill:#f2d388;}</style></defs><title>sun</title><path class="cls-1" d="M11.79,48.18h-1a11.85,11.85,0,0,0-2.61.53l1.33,4.09a7.49,7.49,0,0,1,2.31-.36v-4.3ZM4.87,50.43c-.27.19-.52.4-.77.61h0l0,0h0l0,0H3.63l0,0h0l0,0h0l0,0h0l-.06.05h0c-.22.23-.44.46-.64.7h0l0,0h0l0,0h0l0,0h0l0,0h0v0H2.32v0H2.26l3.48,2.54A7.26,7.26,0,0,1,7.4,53.91L4.87,50.43ZM.58,56.31q-.15.49-.27,1h0v0h0v0h0v0h0v0h0v0h0v0h0A11.56,11.56,0,0,0,0,59.23H0v0H0v0H0v0H0v0H0v0H0v0H0v0H0V60h4.3a7.49,7.49,0,0,1,.36-2.31L.58,56.31Zm4.09,6L.58,63.59c.05.15.09.29.15.43h0v0h0v0h0v0h0v0h0v0h0v0h0c.12.29.24.56.38.84h0v0h0v0h0l0,0h0v0h0v0h0v0h0v0h0v0h0v0h.23v0h0v0h0v0h0v0h0l0,0h0l0,0h0l0,0h0l0,0h0l0,0h0l0,0h0l0,0h0v0h0v0h0l0,0h0v0h.2v0h0l0,0h0l0,0h0l.06.09,3.48-2.53a7.57,7.57,0,0,1-1.06-2.08ZM7.39,66,4.86,69.48c.22.17.45.32.69.47h.33l0,0h0l0,0h0a12.81,12.81,0,0,0,2.2,1l1.33-4.09A7.33,7.33,0,0,1,7.39,66Zm4.4,1.44,0,4.3h0l0-4.3Zm0,0v4.3h0v-4.3Zm2.31-.37a7.43,7.43,0,0,1-2.3.37v4.3H13a11.6,11.6,0,0,0,2.45-.52l-1.32-4.09Zm3.75-2.72A7.51,7.51,0,0,1,16.17,66L18.7,69.5q.33-.24.66-.51h0l0,0h.19l0,0h0l0,0h0l0,0h0a11.69,11.69,0,0,0,1-1.07h0l0,0h0v0H21v0h0v0h0l0,0h0l0,0h0l.21-.28-3.47-2.54ZM19.27,60a7.42,7.42,0,0,1-.36,2.3L23,63.62c.06-.18.12-.36.17-.55h0v0h0v0h.06v0h0a11.5,11.5,0,0,0,.32-2.14h0v0h0v0h0v0h0V60Zm2.07-6.92-3.49,2.52a7.23,7.23,0,0,1,1.06,2.09L23,56.34c-.13-.39-.28-.77-.44-1.14h0v0h0v0h0v0h-.12l0,0h0v0h0a12,12,0,0,0-1-1.73Zm-5.88-4.3-1.34,4.09a7.33,7.33,0,0,1,2.08,1.07l2.54-3.47a12.28,12.28,0,0,0-2.1-1.23h0l-.06,0h0l0,0h-.14l0,0h-.78l-.08,0Zm-3.64-.58,0,4.3,0-4.3Zm0,0v0Z" transform="translate(-0.01 -48.18)"/><circle class="cls-1" cx="11.78" cy="11.78" r="6.25"/></svg>