<svg id="Layer_1" data-name="Layer 1" xmlns="http://www.w3.org/2000/svg" viewBox="0 0 71.93 71.99"><defs><style>.cls-1{fill:#f2d388;}</style></defs><title>sun</title><path class="cls-1" d="M36-.25H33.88l-.26,0h0c-.51,0-1,.08-1.54.13h-.77l-.17,0h-.05c-.59.08-1.17.17-1.75.28l2.4,12.78a22.44,22.44,0,0,1,4.26-.4v-13ZM22.91,2.21h-.17l-.23.09h-.15q-.84.35-1.65.72h0l0,0h-.27l-.15.07h-.44l-.35.18h0c-.87.45-1.71.93-2.53,1.45l6.9,11a23,23,0,0,1,3.81-1.92L22.91,2.21ZM11.62,9.29a35.68,35.68,0,0,0-4,4.39h0l0,0h0v0h0l0,0h0v0h0v0h0l0,0h0v0h0v0h0v0h0v0h0l0,0h0l-.22.3L17.56,22a22.86,22.86,0,0,1,2.87-3.19L11.62,9.29ZM3.65,20c-.53,1.09-1,2.21-1.43,3.35h0l0,.1h0v0h0v0h0l-.09.27h0v0h0v0h0v0H2v0H2v0H2v0H2v0H2v0H2v0H2v0H2v0H2v0H2v0H2l-.05.15h0v0h0v0h0v0h0v0h0v0h0v0h0v0h0v0h0v0h0l0,.05h0l0,.11h0v0h0v0h0v0h0v0h0v0h0v0h0v0h0v0h0v0h0v0h0v0h0v0h0v0h0c-.12.38-.23.76-.34,1.15l12.54,3.44a22.49,22.49,0,0,1,1.51-4L3.65,20ZM.12,32.81c0,.13,0,.26,0,.39h0v0h0v0h0v0h0v0h0v0h0C0,34,0,34.6,0,35.23H0v0H0v.08H0v0H0v.06H0v0H0v0H0v0H0v0H0v0H0v0H0v0H0v0H0v0H0v0H0v.06H0v0H0v0H0v0H0v0H0v0H0v0H0v0H0v0H0v0H0v0H0v0H0v0H0v0H0v0H0v0H0v0H0v0H0v0H0v0H0v0H0v0H0v0H0v0H0v0H0v0H0v0H0v0H0v0H0v0H0v0H0v0H0v0H0v0H0c0,.92.09,1.82.18,2.72l12.93-1.35c-.08-.8-.12-1.61-.12-2.41,0-.63,0-1.26.07-1.89l-13-1ZM14,42.33,1.51,46.07c.17.57.36,1.14.56,1.7h0v0h0v0h0v0h0v0h0v0h0v0h0v0h0v0h0v0h0v0h0v0h0l0,.11h0l0,.1h0a36.73,36.73,0,0,0,1.75,4l11.55-6a21.79,21.79,0,0,1-1.6-4Zm3.91,7.55-10.24,8Q8.51,59,9.47,60.05h0l0,0h0l0,0h0a37.09,37.09,0,0,0,2.69,2.63L20.83,53a23,23,0,0,1-2.95-3.13Zm6.41,5.65L17.64,66.7a36.25,36.25,0,0,0,4.79,2.39h.39c.28.12.57.23.86.33l4.46-12.21a22.59,22.59,0,0,1-3.85-1.83Zm8,2.91L30.15,71.27l.8.12h.6c.9.11,1.81.19,2.74.23h2.54l-.29-13H36a23.4,23.4,0,0,1-3.74-.31ZM44.84,57a23,23,0,0,1-4.06,1.27L43.48,71c.75-.16,1.5-.35,2.23-.55h.16l.24-.07h.27l.16,0h.31L47,70h.34l0,0h1.31l.14-.05h.24l.27-.1h.12l.38-.16-5-12ZM52,52.29A24,24,0,0,1,48.61,55l7.16,10.85H56c.41-.27.82-.56,1.22-.85h0l.3-.23h.38l0,0h0l0,0h0A38.08,38.08,0,0,0,61,61.64l-9-9.35Zm4.94-7A22.37,22.37,0,0,1,54.76,49l10.59,7.54A35.87,35.87,0,0,0,68,52.17h0v0h0l0,0h0v0h0v0h0v0h0v0h0v0h0v0h0v0h0v0h0c.17-.32.32-.65.48-1L56.9,45.33ZM59,37.1a22.87,22.87,0,0,1-.64,4.22l12.61,3.15a34.79,34.79,0,0,0,.87-4.93h0v0h0v0h0v0h0v0h0v0h0v0h0v-.09h0v0h0v0h0v0h0v0h0v0h0v0h0v0h0v0h0l0-.16h0v0h0v0h0v0h0c0-.3,0-.61.07-.92L59,37.1ZM70.25,24.64l-12.37,4a22.65,22.65,0,0,1,.93,4.15l12.9-1.64a36.18,36.18,0,0,0-1.46-6.53ZM63.85,13,53.79,21.2a22.81,22.81,0,0,1,2.4,3.55l11.4-6.25-.2-.37h0v0h0v0h0v0h0v0h0v0h0v0h0v0h0v0h0v0h0v0h0v0h0c-.35-.61-.72-1.2-1.1-1.78h0l0,0h0v0h0l0,0h0v0h0v0h0v0h0v0h0l0,0h0a1.63,1.63,0,0,1-.11-.17h0v0h-.07v0h0v0h0v0h0v0h0v0h0v0h0l0,0h0v0h0l0,0h0c-.55-.79-1.13-1.56-1.73-2.3ZM53.65,4.38,47.26,15.7a23.52,23.52,0,0,1,3.52,2.44L59.15,8.2a36,36,0,0,0-5.5-3.82ZM41,.1,39.23,13a22.88,22.88,0,0,1,4.14,1L47.54,1.65A34.36,34.36,0,0,0,42.68.37H42L41,.1Z" transform="translate(-0.01 0.25)"/><circle class="cls-1" cx="36" cy="36" r="19.09"/></svg>