<svg id="Layer_1" data-name="Layer 1" xmlns="http://www.w3.org/2000/svg" viewBox="0 0 71.96 71.98"><defs><style>.cls-1{fill:#f2d388;}</style></defs><title>sun1</title><path class="cls-1" d="M36-.25H31.31a34.89,34.89,0,0,0-4.7.93l3.13,11.59A24,24,0,0,1,36,11.75v-12ZM17.88,4.66h-.2l0,0h-.27l0,0h0l0,0h0l0,0h0l0,0h0l0,0h0l0,0h0l0,0h0l-.06,0h0l0,0h0l0,0h0l-.06,0h0l-.06,0h0l-.06,0h0l-.09,0h0A36.71,36.71,0,0,0,12,8.94h0L11.93,9h0l0,0h0l0,0h0l0,0h0l-.05.05h0l0,0h0l0,.05h0l0,0h0l0,0h0l0,0h0v0h0v0h-.06l0,0h0v0h0l-.05.05h0l-.06.06h0c-.29.27-.58.55-.86.84l8.54,8.43a24.16,24.16,0,0,1,5-3.89L17.88,4.66ZM4.68,18l-.5.91h0l0,.09h0l0,.1h0l0,.07h0l0,0H4l0,.06H4l0,0H4l0,.06h0v0h0l0,.06h0v0h0l0,0h0v0h0v0h0l0,0h0v0h0v0h0l0,0h0v0h0v0h0v0h0v0h0l0,0h0v0h0v0h0l0,0h0v0h0v0h0l0,0h0v0h0l0,0h0v0h0v0h0v0h0v0h0l0,0h0v0h0l0,0h0v0h0v0h0v0h0v0h0l0,0h0v0h0v0h0v0h0v0h0v0h0v0h0v0h0v0h0l0,0h0v0h0l0,0h0v0h0v0h0v0h0l0,0h0v0h0l0,.06h0v0h0l0,.06H3v0H3l0,.06H3l0,0H3v0H3l0,0H3v0h0l0,0h0v0h0l0,.06h0v0h0l0,.07h0l0,0h0l0,.07h0l0,.1h0l0,.1h0a36.09,36.09,0,0,0-1.58,4.74l11.62,3A24.25,24.25,0,0,1,15.11,24L4.68,18Zm7.33,18L0,36.21c0,.91.06,1.82.14,2.71h0v0h0V39h0v0h0v0h0v0h0v0h0v0h0v0h0v0h0v0h0v0h0v0h0v0h0v0h0v0h0v0h0v0h0v0h0v.06h0v0h0v.06h0a36.07,36.07,0,0,0,1.14,5.8L12.91,42.3a24.25,24.25,0,0,1-.9-6.24Zm3.42,12L5.15,54.27a36.2,36.2,0,0,0,5.91,7.41L19.38,53a24.15,24.15,0,0,1-3.95-5Zm9.05,8.71L18.68,67.3h0a35.66,35.66,0,0,0,4,1.89h0l.07,0h0l.07,0h0l.06,0h0l.07,0h0l0,0h.07l0,0h0l.06,0h0l.07,0h.25l0,0h3.1l.07,0h0l.07,0h0l.07,0h0l.07,0h0l.11,0h0l.18,0,2.83-11.66a23.37,23.37,0,0,1-5.86-2.28Zm18.37,2a24.19,24.19,0,0,1-6.23,1l.31,12h1.14a36.1,36.1,0,0,0,8.22-1.44l-3.44-11.5Zm10.65-6.6a23.88,23.88,0,0,1-4.9,4l6.32,10.2a36.36,36.36,0,0,0,4.65-3.42h0l.08-.07h0l.06,0h0l.06,0h0l.06-.05h0l0,0h0l0-.05h0l0,0h0l0,0h0l0,0h0l0,0h0v0h0l0,0h0l0,0h0l0,0h0l0,0h0l0,0h0l0,0h0l0,0h0v0h0l0,0h0l0,0h0l0,0h0l0,0h0l0,0h0l0,0h0l0,0h0l0,0h0l0,0h0l0,0h0l0,0h0l0,0h0l0,0h0l0,0h0l0,0h0l0,0h0l0,0h0l0,0h0v0h0l0,0h0l0,0h0l0,0h0l0,0h0v0h0l0,0h0l0,0h0v0h0l0,0h0l0,0h0l0,0h0l0,0h0v0h0l0,0h0l0,0h0v0h0l0,0h0l0,0h0l0,0h0v0h0v0h0v0h0v0h0l0,0h0l0,0h0l0,0h0v0h0l0,0h0l.05-.05h0L53.5,52.15Zm5.9-11A23.54,23.54,0,0,1,57.19,47l10.58,5.66c.15-.27.29-.54.43-.81h0v0h0l0-.06h0v0h0l0,0h0v0h0v0h0l0,0h0v0h0v0h0v0h0v0h0v-.06h0v0h0v0h0v0h0v0h0l0-.05h0v0h0v0h0l0-.07h0a35.45,35.45,0,0,0,1.82-4.66h0l0-.08h0v0h0l0-.08h0v0h0l0-.07h0v0h0l0-.07h0v0h0v0h0v0h0v-.08h0v-.08h0v-.07h0v0h0v0h0v0h0v0h0v0h0v0h0v0h0l0-.11h0c.13-.49.26-1,.37-1.49L59.4,41.11ZM70.37,25,58.92,28.6A24.2,24.2,0,0,1,60,34.82l12-.46A35.62,35.62,0,0,0,70.37,25ZM60.27,9.19,52.17,18a24.26,24.26,0,0,1,4.08,4.85l10.12-6.45a36,36,0,0,0-3.54-4.67h0a32.81,32.81,0,0,0-2.56-2.58ZM43.59.56,41.07,12.29A23.82,23.82,0,0,1,47,14.42L52.51,3.76a35.78,35.78,0,0,0-6-2.45h0l-.1,0h0l-.1,0h0l-.08,0h0l-.07,0h0l-.07,0h0l-.07,0h-.85L45,.88h-.14l-.08,0h0Q44.19.68,43.59.56Z" transform="translate(-0.01 0.25)"/><circle class="cls-1" cx="35.99" cy="35" r="19.09"/></svg>