<?xml version="1.0" encoding="utf-8"?>
<!-- Generator: Adobe Illustrator 22.1.0, SVG Export Plug-In . SVG Version: 6.00 Build 0)  -->
<svg version="1.1" id="Layer_1" xmlns="http://www.w3.org/2000/svg" xmlns:xlink="http://www.w3.org/1999/xlink" x="0px" y="0px"
	 viewBox="0 0 720 720" style="enable-background:new 0 0 720 720;" xml:space="preserve">
<style type="text/css">
	.st0{fill:#F2D388;}
	.st1{fill:#874C62;}
</style>
<g>
	<title>sun-heart</title>
	<polygon class="st0" points="226.4,702.5 223.6,702.5 224.8,700.9 	"/>
	<polygon class="st0" points="226.4,702.5 223.6,702.5 224.8,700.9 	"/>
	<path class="st1" d="M692.7,360.2L565.1,506.3L381.4,708.2L179.6,528.5L37.5,395.7c-57.2-73-44.4-178.6,28.6-235.8
		c11.7-9.2,24.7-16.8,38.4-22.6c91.2-40.4,203.9,12.1,251.9,118.7c1.5,1.6,2.9,3.3,4,5.2c-0.2-2.6-0.2-5.1,0-7.7
		c40.4-110.6,145.7-176,242.2-142.5c88.3,29.1,136.3,124.3,107.1,212.6C705.6,336.5,699.8,348.7,692.7,360.2z"/>
	<circle class="st0" cx="356.4" cy="192.2" r="99.7"/>
	<path class="st0" d="M231,62.3l11.1-10c1.3-1.2,3.4-1.1,4.6,0.3l40.4,45.1c1.2,1.3,1.1,3.4-0.3,4.6l-11.1,10
		c-1.3,1.2-3.4,1.1-4.6-0.3l-40.4-45.1C229.5,65.6,229.7,63.5,231,62.3z"/>
	<path class="st0" d="M176.2,192.1l0.6-14.9c0.1-1.8,1.6-3.2,3.3-3.1l60.5,2.3c1.8,0.1,3.2,1.6,3.1,3.3l-0.6,14.9
		c-0.1,1.8-1.6,3.2-3.3,3.1l-60.5-2.3C177.6,195.4,176.2,193.9,176.2,192.1z"/>
	<path class="st0" d="M231,321.7L220.7,311c-1.2-1.3-1.2-3.3,0.1-4.6l43.7-42c1.3-1.2,3.3-1.2,4.6,0.1l10.3,10.8
		c1.2,1.3,1.2,3.3-0.1,4.6l-43.7,42C234.3,323.1,232.2,323,231,321.7z"/>
	<path class="st0" d="M362.8,372.2l-14.9,0c-1.8,0-3.2-1.5-3.2-3.2l0.1-60.6c0-1.8,1.5-3.2,3.2-3.2l14.9,0c1.8,0,3.2,1.5,3.2,3.2
		L366,369C366,370.8,364.6,372.2,362.8,372.2z"/>
	<path class="st0" d="M490.5,312.7l-10.4,10.7c-1.2,1.3-3.3,1.3-4.6,0.1l-43.5-42.2c-1.3-1.2-1.3-3.3-0.1-4.6l10.4-10.7
		c1.2-1.3,3.3-1.3,4.6-0.1l43.5,42.2C491.7,309.4,491.8,311.4,490.5,312.7z"/>
	<path class="st0" d="M536.2,179.7l0.5,14.9c0.1,1.8-1.3,3.3-3.1,3.3l-60.5,2c-1.8,0.1-3.3-1.3-3.3-3.1l-0.5-14.9
		c-0.1-1.8,1.3-3.3,3.1-3.3l60.5-2C534.6,176.5,536.1,177.9,536.2,179.7z"/>
	<path class="st0" d="M472.8,54.2l11.1,10c1.3,1.2,1.4,3.2,0.2,4.6l-40.6,44.9c-1.2,1.3-3.2,1.4-4.6,0.2l-11.1-10
		c-1.3-1.2-1.4-3.2-0.2-4.6l40.6-44.9C469.5,53.1,471.5,53,472.8,54.2z"/>
	<path class="st0" d="M337.7,12.9l14.9-1c1.8-0.1,3.3,1.2,3.4,3l4.1,60.4c0.1,1.8-1.2,3.3-3,3.4l-14.9,1c-1.8,0.1-3.3-1.2-3.4-3
		l-4.1-60.4C334.5,14.5,335.9,13,337.7,12.9z"/>
</g>
</svg>
